<?xml version="1.0" encoding="UTF-8" standalone="no"?>
<!DOCTYPE svg PUBLIC "-//W3C//DTD SVG 1.1//EN" "http://www.w3.org/Graphics/SVG/1.1/DTD/svg11.dtd">
<svg width="100%" height="100%" viewBox="0 0 224 39" version="1.1" xmlns="http://www.w3.org/2000/svg" xmlns:xlink="http://www.w3.org/1999/xlink" xml:space="preserve" xmlns:serif="http://www.serif.com/" style="fill-rule:evenodd;clip-rule:evenodd;stroke-linejoin:round;stroke-miterlimit:2;">
    <g transform="matrix(1,0,0,1,-3026.51,-484.605)">
        <g id="Artboard3" transform="matrix(0.186461,0,0,0.0479571,2560.35,484.605)">
            <rect x="2500" y="0" width="1200" height="800" style="fill:none;"/>
            <g transform="matrix(1.85552,0,0,7.21443,2477.12,-1411.8)">
                <g transform="matrix(0.878515,0,0,0.319363,133.113,109.334)">
                    <g transform="matrix(126.933,0,0,349.171,55.6304,567.845)">
                        <path d="M0.354,-0.711L0.442,-0.711L0.496,-0.682L0.347,-0L0.248,-0L0.214,-0.034L0.354,-0.711ZM0.308,-0.026L0.271,-0L0.157,-0L0.009,-0.711L0.191,-0.711L0.308,-0.026ZM0.673,-0.711L0.854,-0.711L0.707,-0L0.593,-0L0.557,-0.03L0.673,-0.711ZM0.652,-0.029L0.616,-0L0.517,-0L0.365,-0.683L0.42,-0.711L0.508,-0.711L0.652,-0.029Z" style="fill:white;fill-rule:nonzero;"/>
                    </g>
                    <g transform="matrix(126.933,0,0,349.171,161.234,567.845)">
                        <path d="M0.66,-0.345C0.66,-0.271 0.647,-0.208 0.62,-0.155C0.593,-0.102 0.556,-0.061 0.509,-0.033C0.462,-0.004 0.408,0.01 0.347,0.01C0.285,0.01 0.231,-0.004 0.183,-0.033C0.136,-0.061 0.098,-0.102 0.072,-0.155C0.045,-0.208 0.031,-0.271 0.031,-0.345L0.031,-0.366C0.031,-0.439 0.045,-0.503 0.071,-0.555C0.098,-0.608 0.135,-0.649 0.182,-0.678C0.23,-0.706 0.284,-0.721 0.346,-0.721C0.407,-0.721 0.461,-0.706 0.508,-0.678C0.555,-0.649 0.593,-0.608 0.62,-0.555C0.647,-0.503 0.66,-0.439 0.66,-0.366L0.66,-0.345ZM0.474,-0.367C0.474,-0.412 0.469,-0.449 0.459,-0.479C0.449,-0.51 0.435,-0.533 0.416,-0.548C0.396,-0.563 0.373,-0.571 0.346,-0.571C0.317,-0.571 0.293,-0.563 0.274,-0.548C0.256,-0.533 0.241,-0.51 0.232,-0.479C0.222,-0.449 0.218,-0.412 0.218,-0.367L0.218,-0.345C0.218,-0.301 0.223,-0.264 0.232,-0.233C0.242,-0.202 0.256,-0.179 0.275,-0.163C0.294,-0.148 0.318,-0.14 0.347,-0.14C0.374,-0.14 0.397,-0.148 0.416,-0.163C0.435,-0.179 0.45,-0.202 0.459,-0.233C0.469,-0.264 0.474,-0.301 0.474,-0.345L0.474,-0.367Z" style="fill:white;fill-rule:nonzero;"/>
                    </g>
                    <g transform="matrix(126.933,0,0,349.171,247.398,567.845)">
                        <path d="M0.335,-0.711C0.391,-0.711 0.439,-0.703 0.479,-0.686C0.52,-0.67 0.552,-0.646 0.574,-0.614C0.596,-0.582 0.607,-0.542 0.607,-0.495C0.607,-0.453 0.601,-0.418 0.588,-0.39C0.576,-0.363 0.558,-0.34 0.536,-0.323C0.514,-0.306 0.487,-0.291 0.458,-0.278L0.397,-0.242L0.166,-0.242L0.165,-0.39L0.333,-0.39C0.353,-0.39 0.37,-0.393 0.384,-0.399C0.397,-0.406 0.407,-0.416 0.414,-0.428C0.42,-0.441 0.424,-0.457 0.424,-0.476C0.424,-0.503 0.416,-0.525 0.401,-0.54C0.386,-0.555 0.364,-0.563 0.335,-0.563L0.234,-0.563L0.234,-0L0.051,-0L0.051,-0.711L0.335,-0.711ZM0.28,-0.313L0.474,-0.314L0.63,-0.008L0.63,-0L0.434,-0L0.28,-0.313Z" style="fill:white;fill-rule:nonzero;"/>
                    </g>
                    <g transform="matrix(126.933,0,0,349.171,329.844,567.845)">
                        <path d="M0.128,-0L0.129,-0.147L0.285,-0.147C0.316,-0.147 0.342,-0.155 0.363,-0.169C0.384,-0.183 0.4,-0.205 0.411,-0.234C0.422,-0.263 0.428,-0.299 0.428,-0.343L0.428,-0.368C0.428,-0.412 0.422,-0.448 0.411,-0.477C0.4,-0.506 0.384,-0.527 0.363,-0.542C0.341,-0.556 0.314,-0.563 0.282,-0.563L0.125,-0.563L0.125,-0.711L0.282,-0.711C0.347,-0.711 0.404,-0.696 0.454,-0.667C0.504,-0.638 0.543,-0.597 0.572,-0.546C0.6,-0.494 0.614,-0.435 0.614,-0.367L0.614,-0.343C0.614,-0.276 0.6,-0.217 0.572,-0.165C0.543,-0.113 0.505,-0.073 0.455,-0.044C0.406,-0.015 0.349,-0 0.285,-0L0.128,-0ZM0.234,-0L0.05,-0L0.05,-0.711L0.234,-0.711L0.234,-0Z" style="fill:white;fill-rule:nonzero;"/>
                    </g>
                    <g transform="matrix(126.933,0,0,349.171,435.263,567.845)">
                        <rect x="0.062" y="-0.711" width="0.183" height="0.711" style="fill:white;fill-rule:nonzero;"/>
                    </g>
                    <g transform="matrix(126.933,0,0,349.171,472.898,567.845)">
                        <path d="M0.406,-0L0.223,-0L0.223,-0.711L0.406,-0.711L0.406,-0ZM0.616,-0.563L0.017,-0.563L0.017,-0.711L0.616,-0.711L0.616,-0.563Z" style="fill:white;fill-rule:nonzero;"/>
                    </g>
                    <g transform="matrix(126.933,0,0,349.171,553.732,567.845)">
                        <path d="M0.218,-0.231L0.076,-0.231L0.053,-0.711L0.241,-0.711L0.218,-0.231ZM0.048,-0.082C0.048,-0.108 0.057,-0.129 0.075,-0.146C0.093,-0.164 0.116,-0.172 0.145,-0.172C0.174,-0.172 0.197,-0.164 0.215,-0.146C0.233,-0.129 0.242,-0.108 0.242,-0.082C0.242,-0.056 0.233,-0.034 0.215,-0.017C0.197,0.001 0.174,0.01 0.145,0.01C0.116,0.01 0.093,0.001 0.075,-0.017C0.057,-0.034 0.048,-0.056 0.048,-0.082Z" style="fill:white;fill-rule:nonzero;"/>
                    </g>
                </g>
                <g transform="matrix(6.12323e-17,1,-0.547331,3.35143e-17,367.569,68.4955)">
                    <path d="M161.392,466.933C161.392,455.685 156.394,446.552 150.237,446.552C144.08,446.552 139.082,455.685 139.082,466.933L139.082,537.853C139.082,549.102 144.08,558.234 150.237,558.234C156.394,558.234 161.392,549.102 161.392,537.853L161.392,466.933Z" style="fill:rgb(40,205,255);"/>
                </g>
                <g transform="matrix(6.12323e-17,1,-0.547331,3.35143e-17,327.006,100.806)">
                    <path d="M161.392,466.933C161.392,455.685 156.394,446.552 150.237,446.552C144.08,446.552 139.082,455.685 139.082,466.933L139.082,537.853C139.082,549.102 144.08,558.234 150.237,558.234C156.394,558.234 161.392,549.102 161.392,537.853L161.392,466.933Z" style="fill:rgb(252,0,80);"/>
                </g>
                <g transform="matrix(6.12323e-17,1,-0.547331,3.35143e-17,408.133,100.806)">
                    <path d="M161.392,466.933C161.392,455.685 156.394,446.552 150.237,446.552C144.08,446.552 139.082,455.685 139.082,466.933L139.082,537.853C139.082,549.102 144.08,558.234 150.237,558.234C156.394,558.234 161.392,549.102 161.392,537.853L161.392,466.933Z" style="fill:rgb(0,227,132);"/>
                </g>
                <g transform="matrix(6.12323e-17,1,-0.547331,3.35143e-17,367.569,133.117)">
                    <path d="M161.392,466.933C161.392,455.685 156.394,446.552 150.237,446.552C144.08,446.552 139.082,455.685 139.082,466.933L139.082,537.853C139.082,549.102 144.08,558.234 150.237,558.234C156.394,558.234 161.392,549.102 161.392,537.853L161.392,466.933Z" style="fill:rgb(255,186,25);"/>
                </g>
            </g>
        </g>
    </g>
</svg>
